<svg xmlns="http://www.w3.org/2000/svg" viewBox="0 0 200 32.424"><path d="M74.959 22.6c0-.666.898-.579 1.796-.869 1.217-.406 1.217-1.42 1.217-2.52V8.577c0-1.043-.173-1.304-1.825-1.304-2.057 0-2.811.087-3.188 1.188-.492 1.39-.232 1.854-.956 1.854-.434 0-.58-.26-.58-.753 0-.464.087-1.043.145-2.955.029-.58.058-.927.521-.927h14.806c.435 0 .521.319.521.927 0 1.738.116 2.491.116 2.955 0 .493-.116.753-.579.753-.724 0-.464-.434-.957-1.854-.377-1.101-1.13-1.188-3.187-1.188-1.593 0-1.768.261-1.768 1.304v10.634c0 1.1 0 2.143 1.217 2.52.898.29 1.768.203 1.797.869 0 .319-.204.464-.638.464h-7.823c-.432 0-.635-.145-.635-.464m-17.527.464c-.638 0-.84-.406-.956-1.13l-.551-3.854c-.116-.84-.116-1.449.551-1.449.579 0 .666.434.811 1.304.434 2.491 2.347 4.461 5.794 4.461 2.492 0 4.636-1.246 4.636-3.593 0-2.317-2.028-3.158-5.39-4.548-3.737-1.536-6.113-2.695-6.113-6.114C56.215 4.811 58.562 2 62.85 2c2.26 0 3.332.724 5.273.84.521.058.666.347.695.666.029.377.406 4.433.406 4.781 0 .463-.173.696-.637.696-.667 0-.753-.608-.869-1.362-.377-2.694-2.347-4.144-4.926-4.144-2.463 0-4.027 1.333-4.027 3.1 0 1.651 1.362 2.782 4.433 4.028 3.912 1.564 7.041 2.404 7.041 6.606 0 4.259-3.274 6.867-7.272 6.867-2.261 0-3.826-1.014-5.535-1.014m-3.968-.551c0 .406-.232.551-.754.551h-2.52c-.841 0-1.333-.29-1.97-1.362l-3.043-5.215c-.434-.725-.666-1.014-1.651-1.014h-.782c-.812 0-1.044.203-1.044.898v2.81c0 1.304.347 2.115 1.13 2.521.608.319 1.333.29 1.333.898 0 .319-.145.464-.58.464h-6.664c-.319 0-.493-.145-.493-.464 0-.666.666-.55 1.362-.869.869-.377.869-1.304.869-2.347V9.533c0-1.187 0-2.143-1.043-2.52-.869-.319-1.767-.174-1.767-.87 0-.319.145-.463.434-.463h8.287c3.767 0 5.881 1.593 5.881 4.548 0 1.971-1.014 3.477-2.724 4.288-.26.174-.319.347-.173.58l3.65 5.535c1.19 1.824 2.262 1.042 2.262 1.882m-5.91-11.763c0-2.52-1.594-3.68-4.115-3.68-1.507 0-1.738.319-1.738 1.275v4.694c0 .811.145 1.1 1.42 1.1h.841c2.491 0 3.592-1.245 3.592-3.389M21.595 22.6c0-.666.666-.55 1.274-.84.898-.376.956-1.217.956-2.376V9.533c0-1.246-.028-2.145-1.101-2.522-.811-.319-1.709-.173-1.709-.869 0-.319.145-.463.434-.463h11.966c.551 0 .753.232.753.695v2.52c0 .434-.145.609-.463.609-.695 0-.377-.87-.84-1.536-.493-.724-1.564-.957-3.941-.957-1.477 0-2.057.348-2.057 1.449v3.911c0 .724.29 1.044 1.072 1.044h.811c1.1 0 2.057-.145 2.578-.754.58-.695.377-1.303.927-1.303.347 0 .464.232.464.405v4.897c0 .261-.145.522-.493.522-.608 0-.405-.667-.695-1.333-.377-.869-1.217-1.101-2.608-1.101h-.983c-.928 0-1.072.377-1.072 1.391v4.144c0 1.101.55 1.449 2.492 1.449 2.55 0 3.39-.377 3.998-1.246.58-.811.55-1.651 1.217-1.651.29 0 .434.173.347.579l-.406 2.55c-.116.753-.464 1.101-1.13 1.101h-11.3c-.318 0-.491-.145-.491-.464m-19.585 0c0-.695.898-.55 1.68-.84 1.131-.405 1.131-1.42 1.131-2.55V9.533c0-1.246 0-2.143-1.131-2.549-.782-.291-1.68-.146-1.68-.841 0-.319.174-.463.463-.463h7.968c6.171 0 10.112 3.186 10.112 8.228 0 5.563-3.941 9.156-10.112 9.156H2.445c-.261 0-.435-.145-.435-.464m15.385-7.91c0-4.694-2.608-7.678-6.693-7.678-2.578 0-2.84 1.013-2.84 3.216v8.287c0 2.202.261 3.216 2.84 3.216 4.085 0 6.693-2.665 6.693-7.041M85.939 22.6c0-.55.637-.637 1.13-.84.695-.29 1.043-.956 1.507-2.028L94.892 5.39c.086-.203.26-.348.434-.348s.347.145.434.348l6.258 14.284c.493 1.13.841 1.68 1.507 2.028.493.26 1.13.347 1.13.869 0 .319-.173.493-.579.493h-6.664c-.289 0-.434-.173-.434-.434 0-.348.319-.551.927-.637.87-.174 1.13-.377 1.13-.84 0-.291-.145-.812-.521-1.681l-.55-1.275c-.377-.898-.58-1.101-1.825-1.101h-3.245c-1.043 0-1.478 0-1.941 1.101l-.753 1.855c-.145.347-.232.695-.232.898 0 .695.405.811 1.361.956.899.116 1.42.203 1.42.724 0 .232-.117.434-.435.434h-5.911c-.291 0-.464-.145-.464-.464m10.488-6.867c.232 0 .347-.173.347-.376 0-.174-.116-.406-.232-.696l-1.825-4.403c-.087-.174-.145-.203-.26-.203-.116 0-.232.058-.291.231l-1.796 4.375c-.116.291-.232.551-.232.696 0 .203.116.376.347.376h3.942zM2 29.989v-1.536c0-.261.174-.434.434-.434h194.733c.26 0 .434.173.434.434v1.536c0 .26-.174.435-.434.435H2.434c-.26 0-.434-.175-.434-.435m118.068-7.824l-9.909-11.589c-.348-.406-.493-.493-.637-.493-.203 0-.319.174-.319.406v6.026c0 2.26 0 4.027.869 4.925.84.84 2.231.319 2.231 1.188 0 .29-.145.434-.434.434h-5.911c-.319 0-.464-.145-.464-.434 0-.695.87-.551 1.449-1.13.898-.927.898-2.202.898-4.346v-6.838c0-1.274 0-2.347-.666-2.984-.898-.87-2.086-.377-2.086-1.217 0-.26.116-.434.377-.434h3.854c.695 0 .898.29 1.535 1.043l8.287 9.735c.55.637.754.87.985.87.232 0 .377-.116.377-.434V11.59c0-1.912 0-3.593-.926-4.375-.957-.811-2.202-.261-2.202-1.13 0-.29.145-.435.434-.435h5.882c.347 0 .492.145.492.435 0 .695-.869.492-1.448 1.072-.841.783-.87 1.71-.87 3.854v11.705c0 .406-.145.609-.435.609-.407 0-.783-.464-1.363-1.16M125.426 22.6c0-.666.667-.55 1.274-.811.783-.348.957-1.101.957-2.405V9.533c0-1.159 0-2.143-1.13-2.549-.783-.291-1.681-.145-1.681-.841 0-.319.145-.463.435-.463h7.996c6.171 0 10.112 3.186 10.112 8.228 0 5.563-3.941 9.156-10.112 9.156h-7.36c-.317 0-.491-.145-.491-.464m14.806-7.91c0-4.694-2.607-7.678-6.693-7.678-2.578 0-2.84 1.013-2.84 3.216v8.287c0 2.202.261 3.216 2.84 3.216 4.085 0 6.693-2.665 6.693-7.041M180.036 22.6c0-.666.667-.55 1.274-.811.783-.348.957-1.101.957-2.405V9.533c0-1.159 0-2.143-1.13-2.549-.783-.291-1.68-.145-1.68-.841 0-.319.145-.463.434-.463h7.996c6.171 0 10.112 3.187 10.112 8.228 0 5.563-3.941 9.156-10.112 9.156h-7.359c-.318 0-.492-.145-.492-.464m14.806-7.91c0-4.694-2.607-7.678-6.693-7.678-2.578 0-2.84 1.013-2.84 3.216v8.287c0 2.202.261 3.216 2.84 3.216 4.085 0 6.693-2.665 6.693-7.041m-15.644 7.823c0 .406-.232.551-.754.551h-2.52c-.841 0-1.333-.29-1.971-1.362l-3.042-5.215c-.434-.725-.667-1.014-1.651-1.014h-.783c-.811 0-1.043.203-1.043.898v2.81c0 1.304.347 2.115 1.13 2.521.608.319 1.333.29 1.333.898 0 .319-.145.464-.58.464h-6.664c-.319 0-.493-.145-.493-.464 0-.666.667-.55 1.362-.869.869-.377.869-1.304.869-2.347V9.533c0-1.187 0-2.143-1.043-2.52-.87-.319-1.767-.174-1.767-.87 0-.319.145-.463.434-.463h8.286c3.767 0 5.882 1.593 5.882 4.548 0 1.971-1.014 3.477-2.724 4.288-.261.174-.319.347-.174.58l3.651 5.535c1.19 1.824 2.262 1.042 2.262 1.882m-5.911-11.763c0-2.52-1.593-3.68-4.114-3.68-1.507 0-1.738.319-1.738 1.275v4.694c0 .811.145 1.1 1.42 1.1h.84c2.491 0 3.592-1.245 3.592-3.389M142.693 22.6c0-.55.637-.637 1.13-.84.695-.29 1.043-.956 1.506-2.028l6.317-14.342c.086-.203.26-.348.434-.348s.347.145.434.348l6.258 14.284c.493 1.13.841 1.68 1.507 2.028.493.26 1.13.347 1.13.869 0 .319-.173.493-.579.493h-6.664c-.289 0-.434-.173-.434-.434 0-.348.319-.551.927-.637.87-.174 1.13-.377 1.13-.84 0-.291-.145-.812-.521-1.681l-.55-1.275c-.377-.898-.58-1.101-1.825-1.101h-3.245c-1.044 0-1.478 0-1.941 1.101l-.753 1.855c-.145.347-.232.695-.232.898 0 .695.405.811 1.361.956.898.116 1.42.203 1.42.724 0 .232-.117.434-.435.434h-5.911c-.291 0-.464-.145-.464-.464m10.488-6.867c.232 0 .347-.173.347-.376 0-.174-.116-.406-.232-.696l-1.825-4.403c-.087-.174-.145-.203-.26-.203s-.232.058-.291.231l-1.796 4.375c-.116.291-.232.551-.232.696 0 .203.116.376.347.376h3.942z"/><script xmlns=""/></svg>